<?xml version="1.0" standalone="no"?>
<!DOCTYPE svg PUBLIC "-//W3C//DTD SVG 20010904//EN"
 "http://www.w3.org/TR/2001/REC-SVG-20010904/DTD/svg10.dtd">
<svg version="1.0" xmlns="http://www.w3.org/2000/svg"
 width="300.000000pt" height="169.000000pt" viewBox="0 0 300.000000 169.000000"
 preserveAspectRatio="xMidYMid meet">
<metadata>
Created by potrace 1.10, written by Peter Selinger 2001-2011
</metadata>
<g transform="translate(0.000000,169.000000) scale(0.100000,-0.100000)"
fill="#000000" stroke="none">
<path d="M1456 951 c-21 -14 -35 -17 -46 -11 -10 5 -91 9 -181 8 -90 -1 -185
2 -210 6 -37 6 -56 4 -91 -12 -39 -17 -48 -18 -69 -6 -14 8 -56 13 -101 14
-99 0 -107 -9 -104 -129 1 -69 5 -85 21 -97 26 -19 138 -18 180 2 30 14 36 14
64 0 40 -21 116 -20 152 1 26 15 30 15 46 1 16 -14 63 -16 382 -16 209 -1 372
3 382 9 11 6 20 5 24 -1 9 -15 241 -13 264 2 15 9 25 9 46 0 42 -19 89 -15
112 11 17 19 20 34 19 105 -2 103 -13 116 -91 108 -27 -3 -54 -5 -60 -4 -5 0
-140 2 -299 4 -164 2 -303 8 -319 14 -45 15 -89 12 -121 -9z m131 -45 c24 -21
26 -27 18 -52 -6 -16 -20 -33 -33 -39 -31 -14 -27 -22 8 -17 27 4 30 1 30 -22
0 -26 -1 -26 -75 -26 l-75 0 0 30 c0 25 6 32 35 44 24 10 35 22 35 35 0 22
-24 29 -35 11 -3 -5 -13 -10 -21 -10 -18 0 -19 56 -1 63 33 14 87 6 114 -17z
m-721 -20 c8 -11 14 -37 14 -57 0 -58 -33 -79 -126 -79 -67 0 -74 2 -74 19 0
11 5 23 10 26 6 3 10 22 10 41 0 19 -4 34 -10 34 -10 0 -14 32 -6 41 2 2 41 2
86 -1 66 -4 84 -9 96 -24z m183 19 c33 -16 41 -33 41 -80 0 -47 -37 -75 -99
-75 -64 0 -91 25 -91 84 0 74 75 110 149 71z m211 -22 c0 -32 -12 -43 -25 -23
-15 23 -22 7 -14 -32 15 -78 15 -78 -41 -78 -47 0 -50 2 -50 25 0 14 3 25 8
25 4 0 8 16 9 35 2 34 -9 46 -22 25 -13 -20 -25 -9 -25 23 l0 32 80 0 80 0 0
-32z m470 7 c0 -11 -4 -22 -10 -25 -5 -3 -10 -19 -10 -36 0 -16 5 -29 10 -29
6 0 10 -11 10 -25 0 -23 -3 -25 -48 -25 l-48 0 0 83 0 82 48 -3 c39 -3 48 -7
48 -22z m578 -20 c-7 -27 -7 -53 0 -80 l10 -40 -43 0 c-43 0 -44 0 -47 38 l-3
37 -16 -29 -16 -30 -16 30 -16 29 -1 -37 0 -38 -45 0 c-38 0 -45 3 -45 19 0
11 5 23 10 26 6 3 10 19 10 35 0 16 -4 32 -10 35 -5 3 -10 15 -10 26 0 16 7
19 49 19 46 0 50 -2 61 -32 l12 -33 15 32 c14 27 22 32 57 35 23 2 44 2 47 1
4 -2 2 -21 -3 -43z m-889 -25 c11 -36 21 -72 21 -80 0 -20 -59 -20 -66 0 -4 8
-15 15 -25 15 -10 0 -19 -7 -19 -15 0 -10 -11 -15 -35 -15 -32 0 -35 2 -35 30
0 17 4 30 8 30 5 0 14 23 21 50 l13 50 48 0 47 0 22 -65z m481 35 c0 -29 -13
-40 -25 -20 -13 21 -23 9 -22 -25 1 -19 5 -35 9 -35 4 0 8 -11 8 -25 0 -23 -3
-25 -50 -25 -56 0 -56 0 -41 78 8 39 1 55 -14 32 -12 -20 -25 -9 -25 20 l0 30
80 0 80 0 0 -30z m160 -1 c0 -21 -4 -29 -12 -26 -47 19 -48 19 -48 2 0 -11 5
-15 15 -11 10 4 15 -1 15 -14 0 -13 -5 -18 -15 -14 -9 4 -15 0 -15 -10 0 -13
5 -14 26 -6 35 14 34 14 34 -20 l0 -30 -75 0 c-68 0 -75 2 -75 19 0 11 5 23
10 26 6 3 10 19 10 35 0 16 -4 32 -10 35 -5 3 -10 15 -10 26 0 17 7 19 75 19
l75 0 0 -31z"/>
<path d="M770 836 c0 -30 4 -36 21 -36 17 0 20 5 17 32 -2 22 -9 34 -20 36
-15 3 -18 -4 -18 -32z"/>
<path d="M977 864 c-4 -4 -7 -20 -7 -36 0 -25 4 -29 23 -26 17 2 22 10 22 33
0 29 -22 45 -38 29z"/>
<path d="M1347 863 c-12 -12 -7 -53 6 -53 9 0 12 10 9 30 -5 32 -5 33 -15 23z"/>
</g>
</svg>
