<?xml version="1.0" standalone="no"?>
<!DOCTYPE svg PUBLIC "-//W3C//DTD SVG 20010904//EN"
 "http://www.w3.org/TR/2001/REC-SVG-20010904/DTD/svg10.dtd">
<svg version="1.0" xmlns="http://www.w3.org/2000/svg"
 width="300.000000pt" height="300.000000pt" viewBox="0 0 300.000000 300.000000"
 preserveAspectRatio="xMidYMid meet">
<metadata>
Created by potrace 1.10, written by Peter Selinger 2001-2011
</metadata>
<g transform="translate(0.000000,300.000000) scale(0.100000,-0.100000)"
fill="#000000" stroke="none">
<path d="M1265 2840 c-193 -35 -383 -112 -545 -224 -96 -66 -270 -240 -336
-336 -325 -474 -325 -1086 0 -1560 66 -97 240 -271 338 -338 471 -322 1085
-322 1556 0 99 68 272 241 340 340 322 471 322 1085 0 1556 -67 98 -241 272
-338 338 -296 203 -672 286 -1015 224z m385 -25 c386 -43 728 -251 954 -582
80 -117 171 -332 191 -454 4 -24 10 -53 12 -64 3 -11 7 -92 10 -180 9 -275
-38 -464 -177 -710 -111 -198 -327 -399 -547 -509 -127 -63 -201 -87 -395
-126 -80 -16 -318 -13 -424 5 -180 31 -375 111 -533 218 -162 111 -330 307
-425 494 -183 365 -185 816 -3 1178 100 200 268 395 437 507 136 89 315 170
430 194 198 40 312 47 470 29z"/>
<path d="M1471 2381 c-8 -5 -180 -175 -383 -377 -399 -400 -398 -399 -365
-470 27 -56 62 -67 235 -72 l152 -4 1 -37 c0 -20 1 -146 2 -281 2 -263 5 -277
59 -327 42 -39 70 -43 328 -43 258 0 286 4 328 43 54 50 56 62 60 357 2 151 7
279 11 283 5 5 71 9 147 11 156 2 190 13 224 69 23 37 25 63 6 95 -11 21 -605
622 -713 723 -43 39 -66 47 -92 30z m406 -393 c335 -334 373 -376 373 -405 0
-34 -19 -59 -57 -74 -13 -5 -96 -9 -184 -9 l-159 0 0 -295 c0 -326 -4 -351
-59 -379 -45 -24 -537 -24 -582 0 -55 28 -59 53 -59 378 l0 295 -180 3 c-164
3 -181 5 -199 23 -11 11 -23 33 -27 48 -6 27 14 50 372 408 208 208 381 379
384 379 3 0 173 -168 377 -372z"/>
</g>
</svg>
